<svg width="980" height="551" xmlns="http://www.w3.org/2000/svg" xmlns:xlink="http://www.w3.org/1999/xlink">
<path fill="#ff595e" d="M 328.39 322.50 Q 328.39 322.50 333.80 320.61 339.20 318.73 343.99 318.77 348.77 318.82 353.33 318.84 357.89 318.86 367.06 318.87 376.24 318.87 381.52 318.88 386.80 318.88 396.81 318.88 406.82 318.88 413.59 318.88 420.37 318.89 429.01 318.89 437.64 318.89 443.83 318.89 450.03 318.89 458.54 319.12 467.06 319.36 472.66 319.78 478.26 320.20 484.54 321.03 490.81 321.85 494.73 322.19 498.64 322.53 503.63 322.95 508.63 323.37 512.22 323.84 515.82 324.30 520.04 324.77 524.25 325.24 527.35 325.43 530.45 325.62 534.49 325.70 538.53 325.78 541.20 325.82 543.88 325.85 546.88 325.87 549.89 325.88 553.42 325.89 556.95 325.90 559.00 325.90 561.05 325.91 563.69 325.91 566.32 325.91 568.70 325.91 571.07 325.91 576.17 325.91 581.27 325.91 584.94 325.91 588.61 325.91 590.83 326.13 593.06 326.35 595.58 321.04 598.11 315.72 600.49 312.28 602.87 308.83 607.22 303.73 611.58 298.63 615.65 294.60 619.73 290.57 626.34 284.06 632.95 277.56 637.98 272.94 643.00 268.33 648.98 263.57 654.96 258.82 658.58 256.00 662.19 253.18 666.42 249.88 670.65 246.57 673.49 244.63 676.33 242.68 678.35 240.99 680.37 239.29 682.63 237.24 684.89 235.19 686.37 233.33 687.86 231.48 688.99 229.54 690.12 227.61 691.29 224.78 692.46 221.95 693.84 217.48 695.22 213.00 696.07 210.97 696.92 208.94 698.23 206.20 699.54 203.45 700.56 201.36 701.58 199.28 702.59 197.23 703.60 195.18 704.50 193.37 705.40 191.55 706.56 188.78 707.71 186.01 708.44 184.12 709.17 182.24 700.25 178.98 691.33 175.71 683.44 173.50 675.56 171.28 663.06 167.91 650.57 164.55 643.39 162.80 636.20 161.06 625.06 158.08 613.91 155.09 606.07 153.44 598.23 151.80 589.87 149.60 581.50 147.40 574.61 145.90 567.71 144.40 562.28 143.41 556.85 142.41 550.61 141.01 544.37 139.61 539.76 138.36 535.14 137.11 528.65 135.52 522.16 133.92 516.82 132.51 511.48 131.09 502.80 129.36 494.13 127.62 482.62 126.90 471.11 126.19 457.81 125.87 444.51 125.56 434.83 125.42 425.15 125.28 411.41 126.20 397.67 127.11 387.96 128.82 378.25 130.52 366.26 134.31 354.28 138.10 347.72 140.28 341.17 142.46 334.52 145.70 327.88 148.93 323.96 151.12 320.03 153.31 317.71 155.10 315.39 156.89 314.24 160.50 313.09 164.10 313.47 166.66 313.86 169.22 317.48 174.63 321.11 180.04 328.75 191.16 336.40 202.28 344.19 212.10 351.98 221.92 363.58 236.11 375.18 250.31 389.02 264.18 402.86 278.05 413.96 287.06 425.06 296.06 438.24 304.44 451.41 312.81 472.74 318.67 494.08 324.53 508.07 327.08 522.06 329.63 545.12 330.70 568.18 331.77 586.08 332.24 603.98 332.70 613.37 332.27 622.76 331.83 636.67 328.66 650.59 325.49 656.35 323.08 662.11 320.67 658.03 315.48 653.96 310.28 647.95 305.04 641.94 299.80 633.63 293.72 625.33 287.65 619.21 282.51 613.10 277.38 605.61 271.90 598.13 266.42 593.29 262.76 588.45 259.10 585.08 256.43 581.71 253.76 580.49 249.95 579.28 246.13 579.28 246.13 579.28 246.12 579.29 246.12 579.29 246.11 582.98 246.80 586.68 247.49 589.98 250.11 593.27 252.72 598.07 256.34 602.86 259.97 610.55 265.61 618.24 271.26 624.15 276.23 630.05 281.19 638.63 287.48 647.21 293.78 653.53 299.33 659.86 304.88 665.19 311.18 670.53 317.49 668.11 322.57 665.70 327.66 659.03 330.47 652.37 333.29 637.76 336.55 623.15 339.82 613.46 340.26 603.77 340.70 585.79 340.23 567.80 339.76 544.22 338.63 520.63 337.50 506.28 334.87 491.93 332.24 469.57 325.92 447.21 319.60 433.62 310.94 420.02 302.27 408.61 292.99 397.20 283.70 383.09 269.54 368.99 255.37 357.35 241.13 345.71 226.89 337.76 216.85 329.81 206.82 322.08 195.56 314.34 184.31 310.19 177.42 306.03 170.52 305.62 166.64 305.21 162.77 306.11 158.91 307.00 155.06 308.74 152.82 310.48 150.59 313.30 148.46 316.13 146.33 320.26 144.03 324.40 141.73 331.52 138.30 338.63 134.88 345.25 132.67 351.87 130.47 364.37 126.56 376.87 122.64 387.01 120.89 397.14 119.13 411.20 118.21 425.26 117.29 434.98 117.42 444.70 117.56 458.16 117.88 471.62 118.20 483.66 118.99 495.69 119.77 504.61 121.57 513.53 123.36 518.80 124.76 524.07 126.15 530.65 127.77 537.24 129.39 541.68 130.60 546.13 131.80 552.21 133.17 558.30 134.54 563.86 135.56 569.41 136.58 576.48 138.13 583.54 139.67 591.71 141.82 599.87 143.97 607.93 145.67 615.98 147.36 627.03 150.32 638.09 153.29 645.37 155.05 652.65 156.82 665.19 160.20 677.74 163.58 686.04 165.95 694.35 168.31 702.23 171.57 710.11 174.83 712.09 176.14 714.06 177.46 715.54 180.61 717.02 183.77 716.09 186.34 715.16 188.92 713.86 192.02 712.57 195.11 711.67 196.92 710.77 198.72 709.77 200.75 708.77 202.78 707.76 204.84 706.76 206.90 704.80 211.16 702.85 215.41 701.92 218.37 700.98 221.32 699.87 224.66 698.75 228.00 697.78 229.99 696.81 231.98 695.49 234.19 694.16 236.39 692.27 238.70 690.38 241.00 687.93 243.22 685.49 245.44 683.17 247.36 680.85 249.28 678.21 251.08 675.57 252.88 671.34 256.18 667.11 259.48 663.52 262.28 659.94 265.09 654.17 269.65 648.41 274.22 643.49 278.74 638.56 283.26 631.95 289.76 625.35 296.26 621.50 300.05 617.65 303.83 613.55 308.61 609.44 313.39 607.21 316.60 604.98 319.81 602.75 323.44 600.52 327.07 599.48 329.72 598.44 332.36 595.96 333.37 593.49 334.39 591.05 334.15 588.61 333.91 584.94 333.91 581.27 333.91 576.17 333.91 571.07 333.91 568.70 333.91 566.32 333.91 563.68 333.91 561.04 333.91 558.99 333.90 556.93 333.90 553.39 333.89 549.85 333.88 546.81 333.87 543.77 333.85 541.07 333.82 538.36 333.78 534.15 333.69 529.95 333.60 526.66 333.40 523.37 333.19 519.08 332.71 514.78 332.24 511.37 331.79 507.95 331.34 502.95 330.92 497.95 330.50 493.86 330.14 489.77 329.78 483.71 328.98 477.66 328.18 472.24 327.77 466.83 327.35 458.43 327.12 450.03 326.89 443.83 326.89 437.64 326.89 429.00 326.89 420.37 326.89 413.59 326.88 406.81 326.88 396.81 326.88 386.80 326.88 381.51 326.88 376.23 326.87 367.04 326.87 357.85 326.86 353.27 326.84 348.69 326.82 343.87 326.77 339.04 326.72 333.72 324.62 328.39 322.52 328.39 322.51 Z"></path>
</svg>