<svg width="980" height="551" xmlns="http://www.w3.org/2000/svg" xmlns:xlink="http://www.w3.org/1999/xlink">
<path fill="#ff595e" d="M 581.32 394.73 Q 581.32 394.73 581.31 394.73 581.31 394.74 581.31 394.74 581.30 394.74 581.31 394.74 Z"></path><path fill="#ff595e" d="M 170.57 142.94 Q 170.57 142.94 173.63 140.81 176.69 138.67 181.39 138.61 186.10 138.55 189.96 138.52 193.82 138.49 200.27 138.48 206.72 138.47 211.85 138.47 216.99 138.46 224.22 138.46 231.45 138.46 235.55 138.46 239.66 138.46 244.81 138.73 249.96 139.00 253.61 139.36 257.27 139.72 262.58 140.16 267.89 140.61 271.64 141.04 275.40 141.48 279.39 141.90 283.39 142.31 287.02 142.77 290.64 143.22 295.51 143.92 300.37 144.62 303.86 145.15 307.35 145.69 312.13 146.42 316.91 147.16 320.00 147.68 323.09 148.20 327.12 148.64 331.15 149.08 335.33 149.58 339.50 150.08 345.48 150.58 351.46 151.09 355.84 151.30 360.22 151.51 364.60 151.81 368.98 152.11 372.78 152.51 376.58 152.92 379.78 153.08 382.98 153.23 385.21 153.49 387.45 153.75 390.60 153.89 393.75 154.03 396.02 156.27 398.29 158.51 398.29 158.51 398.29 158.51 398.28 158.52 398.28 158.52 394.55 160.23 390.82 161.93 386.70 161.58 382.57 161.22 379.15 161.05 375.73 160.87 372.08 160.48 368.43 160.09 364.13 159.80 359.83 159.50 355.31 159.28 350.79 159.06 344.68 158.54 338.56 158.02 334.42 157.53 330.27 157.04 326.01 156.56 321.75 156.09 318.72 155.58 315.70 155.06 310.92 154.33 306.14 153.60 302.69 153.07 299.23 152.54 294.44 151.85 289.66 151.16 286.11 150.71 282.56 150.27 278.52 149.85 274.47 149.43 270.85 149.00 267.22 148.58 261.85 148.13 256.49 147.68 253.01 147.33 249.53 146.99 244.60 146.72 239.66 146.46 235.56 146.46 231.45 146.46 224.23 146.46 217.00 146.46 211.86 146.47 206.73 146.47 200.30 146.48 193.88 146.49 190.04 146.52 186.20 146.55 181.63 146.60 177.05 146.66 173.81 144.81 170.57 142.96 170.57 142.95 Z"></path><path fill="#ff595e" d="M 374.77 41.34 Q 374.77 41.34 376.65 50.00 378.53 58.66 378.48 65.95 378.43 73.24 378.41 79.65 378.39 86.05 378.38 90.65 378.37 95.25 378.37 98.66 378.37 102.08 376.37 105.22 374.37 108.37 374.37 108.37 374.36 108.37 374.36 108.37 374.35 108.37 372.36 105.22 370.37 102.07 370.37 98.65 370.37 95.23 370.38 90.63 370.39 86.02 370.41 79.61 370.43 73.19 370.48 65.87 370.53 58.55 372.64 49.94 374.75 41.33 374.76 41.34 Z"></path><path fill="#1982c4" d="M 386.02 25.98 Q 386.02 25.98 388.10 30.74 390.17 35.49 391.16 40.15 392.15 44.81 395.20 52.27 398.25 59.74 400.28 64.43 402.31 69.13 404.36 73.49 406.41 77.85 409.16 83.18 411.92 88.52 413.46 91.52 415.00 94.52 416.08 96.66 417.16 98.81 416.30 101.67 415.44 104.54 415.43 104.54 415.43 104.54 415.42 104.54 415.42 104.55 412.73 103.48 410.05 102.42 408.96 100.29 407.88 98.17 406.35 95.18 404.81 92.19 401.99 86.72 399.16 81.25 397.07 76.78 394.97 72.31 392.90 67.52 390.83 62.73 387.57 54.58 384.32 46.43 383.25 41.04 382.18 35.65 384.09 30.82 386.00 25.98 386.01 25.98 Z"></path><path fill="#1982c4" d="M 485.68 216.33 Q 485.68 216.33 480.28 220.37 474.88 224.41 471.94 225.59 469.00 226.77 466.39 228.16 463.78 229.56 461.24 230.96 458.70 232.36 456.60 231.95 454.49 231.54 454.49 231.54 454.49 231.53 454.49 231.53 454.48 231.53 454.56 228.67 454.63 225.81 457.34 224.14 460.04 222.48 463.03 220.91 466.03 219.35 469.11 218.11 472.20 216.88 478.93 216.60 485.67 216.32 485.68 216.32 Z"></path><path fill="#1982c4" d="M 519.71 234.59 Q 519.71 234.59 517.72 230.21 515.72 225.84 515.72 223.55 515.72 221.26 515.72 217.83 515.72 214.41 517.72 210.57 519.71 206.73 519.72 206.73 519.72 206.73 519.73 206.73 519.73 206.73 521.73 210.57 523.72 214.41 523.72 217.83 523.72 221.26 523.72 223.55 523.72 225.84 521.73 230.21 519.73 234.59 519.72 234.59 Z"></path>
</svg>